# xmcd CD database file
#
# Track frame offsets:
#	150
#	7292
#	32770
#	46157
#	66705
#	79657
#	97670
#	117765
#	133952
#	152272
#	170575
#
# Disc length: 2567 seconds
#
# Revision: 4
# Processed by: cddbd v1.5.2PL0 Copyright (c) Steve Scherf et al.
# Submitted via: CDex 1.70beta2
#
DISCID=8a0a050b
DTITLE=宗次郎 - 大黄河 Ⅰ
DYEAR=1998
DGENRE=Soundtrack
TTITLE0=大黄河
TTITLE1=壮雲海～星宿海
TTITLE2=冬雪花
TTITLE3=月霞草
TTITLE4=朧伝説
TTITLE5=黄河源
TTITLE6=大黄河
TTITLE7=童戯原
TTITLE8=天清流
TTITLE9=麗泉郷
TTITLE10=陽春麓
EXTD=YEAR: 1998
EXTT0=
EXTT1=
EXTT2=
EXTT3=
EXTT4=
EXTT5=
EXTT6=
EXTT7=
EXTT8=
EXTT9=
EXTT10=
PLAYORDER=
